# xmcd
#
# Track frame offsets: 
#        150
#        13074
#        25945
#        47718
#        61930
#        78761
#        90443
#        103941
#
# Disc length: 1545 seconds
#
# Revision: 0
# Processed by: cddbd v1.5.2PL0 Copyright (c) Steve Scherf et al.
# Submitted via: ExactAudioCopy v1.2
#
DISCID=57060708
DTITLE=Noya Sol - The Blues of Freeborn Women
DYEAR=2019
DGENRE=Blues
TTITLE0=Young Woman's Blues
TTITLE1=Preachin' the Blues
TTITLE2=Empty Bed Blues
TTITLE3=Black Bottom
TTITLE4=Percolatin' Blues
TTITLE5=Johnny's Love
TTITLE6=Cat in Heat
TTITLE7=Deep Moaning Blues
EXTD=
EXTT0=
EXTT1=
EXTT2=
EXTT3=
EXTT4=
EXTT5=
EXTT6=
EXTT7=
PLAYORDER=
